<?xml version="1.0" encoding="UTF-8" standalone="no"?>
<svg
   data-v-fde0c5aa=""
   viewBox="0 0 300 300"
   class="iconLeft"
   version="1.1"
   id="svg18"
   sodipodi:docname="favicon.svg"
   inkscape:version="1.2.2 (b0a8486541, 2022-12-01)"
   inkscape:export-filename="favicon.png"
   inkscape:export-xdpi="327.67999"
   inkscape:export-ydpi="327.67999"
   xmlns:inkscape="http://www.inkscape.org/namespaces/inkscape"
   xmlns:sodipodi="http://sodipodi.sourceforge.net/DTD/sodipodi-0.dtd"
   xmlns="http://www.w3.org/2000/svg"
   xmlns:svg="http://www.w3.org/2000/svg">
  <sodipodi:namedview
     id="namedview20"
     pagecolor="#ffffff"
     bordercolor="#000000"
     borderopacity="0.25"
     inkscape:showpageshadow="2"
     inkscape:pageopacity="0.0"
     inkscape:pagecheckerboard="0"
     inkscape:deskcolor="#d1d1d1"
     showgrid="false"
     inkscape:zoom="0.78666667"
     inkscape:cx="150.63559"
     inkscape:cy="150.63559"
     inkscape:window-width="1440"
     inkscape:window-height="831"
     inkscape:window-x="0"
     inkscape:window-y="0"
     inkscape:window-maximized="1"
     inkscape:current-layer="svg18" />
  <!---->
  <defs
     data-v-fde0c5aa=""
     id="defs2">
    <!---->
  </defs>
  <rect
     data-v-fde0c5aa=""
     fill="#EDED1B"
     x="0"
     y="0"
     width="300px"
     height="300px"
     class="logo-background-square"
     id="rect4" />
  <defs
     data-v-fde0c5aa=""
     id="defs6">
    <!---->
  </defs>
  <defs
     data-v-fde0c5aa=""
     id="defs11">
    <!---->
  </defs>
  <g
     data-v-fde0c5aa=""
     id="7fa97bf1-60ac-48b0-b7c7-f59fb156c985"
     stroke="none"
     fill="#131619"
     transform="matrix(2.7039294,0,0,2.7039294,14.80353,14.80353)">
    <path
       d="M 50,5 C 25.187,5 5,25.187 5,50 5,74.813 25.187,95 50,95 74.813,95 95,74.813 95,50 95,25.187 74.813,5 50,5 Z m 8.987,77.823 A 0.428,0.428 0 0 1 58.56,82.396 v -2.902 c 0,-0.235 0.192,-0.427 0.427,-0.427 h 2.902 c 0.235,0 0.427,0.192 0.427,0.427 v 2.902 a 0.428,0.428 0 0 1 -0.427,0.427 z m 9.546,-55.922 h -6.838 a 1.27,1.27 0 0 1 -1.268,-1.268 v -3.757 a 3.498,3.498 0 0 0 3.414,-3.491 v -2.902 a 3.504,3.504 0 0 0 -3.5,-3.499 h -2.902 c -1.93,0 -3.5,1.57 -3.5,3.499 v 2.902 a 3.5,3.5 0 0 0 3.414,3.491 v 3.757 a 4.346,4.346 0 0 0 4.341,4.341 h 6.838 a 1.27,1.27 0 0 1 1.268,1.268 v 14.703 a 4.345,4.345 0 0 0 4.341,4.341 h 3.488 c -0.036,0.293 -0.059,0.59 -0.059,0.892 v 6.151 a 3.499,3.499 0 0 0 -3.419,3.491 v 2.902 a 3.503,3.503 0 0 0 3.499,3.499 h 2.902 a 3.503,3.503 0 0 0 3.499,-3.499 V 60.82 a 3.498,3.498 0 0 0 -3.409,-3.49 v -6.152 c 0,-0.307 0.034,-0.605 0.099,-0.892 h 9.057 C 89.673,67.941 78.001,82.899 61.971,87.966 v -2.077 a 3.498,3.498 0 0 0 3.415,-3.491 v -2.902 a 3.503,3.503 0 0 0 -3.499,-3.499 h -2.902 a 3.503,3.503 0 0 0 -3.499,3.499 v 2.902 c 0,1.9 1.524,3.444 3.413,3.491 v 2.905 a 39.749,39.749 0 0 1 -8.9,1.016 C 28.05,89.808 10.192,71.95 10.192,50 c 0,-3.18 0.386,-6.271 1.094,-9.237 h 13.488 v 8.706 c 0,2.4 1.953,4.353 4.353,4.353 h 2.834 c 0.091,1.849 1.611,3.329 3.482,3.329 h 2.902 a 3.504,3.504 0 0 0 3.499,-3.5 v -2.902 c 0,-1.93 -1.57,-3.5 -3.499,-3.5 h -2.902 a 3.504,3.504 0 0 0 -3.499,3.5 h -2.817 c -0.706,0 -1.28,-0.574 -1.28,-1.28 V 28.984 c 0,-0.706 0.574,-1.28 1.28,-1.28 h 4.011 v 0.085 c 0,1.93 1.57,3.5 3.499,3.5 h 2.902 a 3.504,3.504 0 0 0 3.499,-3.5 v -2.902 c 0,-1.93 -1.57,-3.5 -3.499,-3.5 h -2.902 c -1.842,0 -3.34,1.435 -3.473,3.244 h -4.037 a 4.358,4.358 0 0 0 -4.353,4.353 V 37.69 H 12.149 C 17.347,21.748 32.346,10.192 50,10.192 c 21.012,0 38.262,16.368 39.699,37.021 H 74.142 A 1.27,1.27 0 0 1 72.874,45.944 V 31.241 a 4.345,4.345 0 0 0 -4.341,-4.34 z M 57.012,18.384 v -2.902 c 0,-0.235 0.192,-0.427 0.427,-0.427 h 2.902 c 0.236,0 0.427,0.192 0.427,0.427 v 2.902 a 0.428,0.428 0 0 1 -0.427,0.427 h -2.902 a 0.428,0.428 0 0 1 -0.427,-0.427 z m 23.542,42.009 c 0.235,0 0.427,0.192 0.427,0.427 v 2.902 a 0.428,0.428 0 0 1 -0.427,0.427 H 77.652 A 0.428,0.428 0 0 1 77.225,63.722 V 60.82 c 0,-0.235 0.192,-0.427 0.427,-0.427 z M 35.016,53.651 v -2.902 c 0,-0.236 0.192,-0.427 0.427,-0.427 h 2.902 c 0.235,0 0.427,0.192 0.427,0.427 v 2.902 a 0.427,0.427 0 0 1 -0.427,0.427 h -2.902 a 0.428,0.428 0 0 1 -0.427,-0.427 z m 1.195,-25.862 v -2.902 c 0,-0.236 0.192,-0.427 0.427,-0.427 h 2.902 c 0.235,0 0.427,0.192 0.427,0.427 v 2.902 a 0.427,0.427 0 0 1 -0.427,0.427 h -2.902 a 0.427,0.427 0 0 1 -0.427,-0.427 z"
       id="path13" />
    <path
       d="m 48.634,32.979 c -1.93,0 -3.5,1.57 -3.5,3.499 v 2.902 c 0,1.871 1.48,3.391 3.329,3.482 v 3.944 a 6.665,6.665 0 0 0 6.657,6.657 h 0.252 v 4.863 a 2.651,2.651 0 0 1 -2.648,2.648 H 35.4 a 6.665,6.665 0 0 0 -6.657,6.657 v 4.267 h -0.256 c -1.93,0 -3.5,1.57 -3.5,3.499 V 78.3 a 3.504,3.504 0 0 0 3.5,3.499 h 2.902 c 1.93,0 3.5,-1.57 3.5,-3.499 v -2.902 a 3.47,3.47 0 0 0 -0.164,-1.003 3.484,3.484 0 0 0 -2.909,-2.453 v -4.311 a 3.59,3.59 0 0 1 3.585,-3.585 h 10.584 v 4.618 a 3.498,3.498 0 0 0 -3.414,3.491 v 2.902 a 3.504,3.504 0 0 0 3.5,3.499 h 2.902 c 1.93,0 3.5,-1.57 3.5,-3.499 v -2.902 a 3.5,3.5 0 0 0 -3.414,-3.491 v -4.618 h 3.668 a 5.727,5.727 0 0 0 5.72,-5.721 v -4.863 h 4.869 a 3.59,3.59 0 0 1 3.585,3.585 v 6.145 h -0.426 a 3.503,3.503 0 0 0 -3.499,3.499 v 2.902 a 3.503,3.503 0 0 0 3.499,3.499 h 2.902 a 3.503,3.503 0 0 0 3.499,-3.499 v -2.902 a 3.497,3.497 0 0 0 -2.902,-3.439 v -6.206 a 6.665,6.665 0 0 0 -6.657,-6.657 h -8.193 a 3.59,3.59 0 0 1 -3.585,-3.585 v -3.926 a 3.504,3.504 0 0 0 3.499,-3.5 v -2.902 a 3.504,3.504 0 0 0 -3.5,-3.499 H 48.634 Z M 31.816,75.398 V 78.3 a 0.428,0.428 0 0 1 -0.427,0.427 H 28.487 A 0.427,0.427 0 0 1 28.06,78.3 v -2.902 c 0,-0.235 0.192,-0.427 0.427,-0.427 h 2.902 c 0.235,0 0.427,0.192 0.427,0.427 z m 17.582,-3.243 v 2.902 a 0.428,0.428 0 0 1 -0.427,0.427 h -2.902 a 0.427,0.427 0 0 1 -0.427,-0.427 v -2.902 c 0,-0.235 0.192,-0.427 0.427,-0.427 h 2.902 c 0.236,0 0.427,0.192 0.427,0.427 z m 20.403,-2.561 a 0.428,0.428 0 0 1 -0.427,0.427 h -2.902 a 0.428,0.428 0 0 1 -0.427,-0.427 v -2.902 c 0,-0.235 0.192,-0.427 0.427,-0.427 h 2.902 c 0.235,0 0.427,0.192 0.427,0.427 z M 56.909,51.926 Z M 51.963,36.478 v 2.902 a 0.428,0.428 0 0 1 -0.427,0.427 H 48.634 A 0.427,0.427 0 0 1 48.207,39.38 v -2.902 c 0,-0.235 0.192,-0.427 0.427,-0.427 h 2.902 c 0.236,0 0.427,0.192 0.427,0.427 z"
       id="path15" />
  </g>
  <!---->
</svg>
