<?xml version="1.0" encoding="UTF-8" standalone="no"?>
<svg
   data-v-423bf9ae=""
   viewBox="0 0 445 120"
   class="iconLeft"
   version="1.1"
   id="svg222"
   sodipodi:docname="logo.svg"
   width="445"
   height="120"
   inkscape:version="1.2.2 (b0a8486541, 2022-12-01)"
   xmlns:inkscape="http://www.inkscape.org/namespaces/inkscape"
   xmlns:sodipodi="http://sodipodi.sourceforge.net/DTD/sodipodi-0.dtd"
   xmlns="http://www.w3.org/2000/svg"
   xmlns:svg="http://www.w3.org/2000/svg">
  <defs
     id="defs226" />
  <sodipodi:namedview
     id="namedview224"
     pagecolor="#ffffff"
     bordercolor="#000000"
     borderopacity="0.25"
     inkscape:showpageshadow="2"
     inkscape:pageopacity="0.0"
     inkscape:pagecheckerboard="0"
     inkscape:deskcolor="#d1d1d1"
     showgrid="false"
     inkscape:zoom="1.3111111"
     inkscape:cx="143.77119"
     inkscape:cy="75.88983"
     inkscape:window-width="1440"
     inkscape:window-height="831"
     inkscape:window-x="0"
     inkscape:window-y="0"
     inkscape:window-maximized="1"
     inkscape:current-layer="svg222" />
  <!---->
  <!---->
  <!---->
  <!---->
  <g
     id="g233"
     transform="translate(15.370821,15)">
    <g
       data-v-423bf9ae=""
       id="68104f8e-8ca2-42aa-b73e-ed3b4311c3b6"
       fill="#131619"
       transform="matrix(4.7846889,0,0,4.7846889,109.85645,4.6172228)">
      <path
         d="m 0.03,12.29 3.75,-9.6 h 2.55 l 3.75,9.6 H 7.87 L 7.18,10.46 H 2.81 L 2.13,12.29 Z M 3.44,8.76 h 3.1 L 5.63,6.33 v 0 Q 5.52,6.03 5.31,5.35 v 0 0 Q 5.1,4.66 5.03,4.44 v 0 H 4.96 v 0 Q 4.89,4.66 4.68,5.35 v 0 0 Q 4.47,6.03 4.35,6.33 v 0 z m 10.6,3.7 v 0 q -1.54,0 -2.41,-0.64 v 0 0 q -0.88,-0.63 -0.88,-1.7 v 0 l 0.02,-0.17 h 1.86 v 0.1 0 q 0.01,0.49 0.44,0.71 v 0 0 q 0.43,0.22 1.04,0.22 v 0 0 q 0.58,0 0.98,-0.16 v 0 0 q 0.41,-0.15 0.41,-0.5 v 0 0 q 0,-0.39 -0.41,-0.59 v 0 0 q -0.42,-0.2 -1.3,-0.39 v 0 0 Q 12.88,9.13 12.31,8.91 v 0 0 q -0.58,-0.22 -1,-0.68 v 0 0 Q 10.89,7.77 10.89,7 v 0 0 q 0,-1.08 0.9,-1.66 v 0 0 Q 12.7,4.76 14.13,4.76 v 0 0 q 1.33,0 2.19,0.54 v 0 0 q 0.87,0.54 0.87,1.46 v 0 l -0.01,0.32 h -1.86 v -0.02 0 Q 15.3,6.65 14.97,6.45 v 0 0 Q 14.63,6.24 14.06,6.24 v 0 0 q -0.58,0 -0.91,0.16 v 0 0 q -0.34,0.15 -0.34,0.43 v 0 0 q 0,0.35 0.39,0.52 v 0 0 q 0.38,0.17 1.23,0.34 v 0 0 q 0.94,0.21 1.53,0.42 v 0 0 q 0.59,0.21 1.02,0.68 v 0 0 q 0.44,0.48 0.44,1.29 v 0 0 q 0,2.38 -3.38,2.38 z m 4.85,-0.17 V 2.17 h 1.91 v 5.68 l 2.44,-2.92 h 2.21 l -2.43,2.83 2.57,4.53 h -2.2 L 21.78,9.17 20.8,10.12 v 2.17 z m 15.3,0.17 v 0 q -1.11,0 -2.03,-0.34 v 0 0 Q 31.25,11.77 30.7,11.1 v 0 0 Q 30.16,10.43 30.16,9.48 v 0 l 0.01,-0.31 h 2.06 l -0.02,0.22 v 0 q 0,0.62 0.55,0.98 v 0 0 q 0.55,0.37 1.53,0.37 v 0 0 q 1.03,0 1.49,-0.28 v 0 0 q 0.47,-0.27 0.47,-0.73 v 0 0 q 0,-0.41 -0.3,-0.68 v 0 0 Q 35.64,8.78 35.19,8.62 v 0 0 Q 34.73,8.46 33.94,8.23 v 0 0 Q 32.8,7.91 32.1,7.62 v 0 0 Q 31.4,7.32 30.9,6.74 v 0 0 Q 30.39,6.16 30.39,5.21 v 0 0 q 0,-1.32 1.07,-2 v 0 0 q 1.06,-0.69 2.83,-0.69 v 0 0 q 1.66,0 2.72,0.71 v 0 0 q 1.06,0.7 1.06,2.12 v 0 0.17 h -2.02 v -0.13 0 q 0,-0.53 -0.48,-0.84 v 0 0 Q 35.08,4.24 34.26,4.24 v 0 0 q -0.88,0 -1.35,0.24 v 0 0 q -0.47,0.24 -0.47,0.66 v 0 0 q 0,0.32 0.28,0.55 v 0 0 q 0.28,0.23 0.7,0.38 v 0 0 q 0.42,0.15 1.19,0.36 v 0 0 q 1.15,0.3 1.88,0.61 v 0 0 q 0.74,0.3 1.27,0.88 v 0 0 q 0.53,0.59 0.53,1.54 v 0 0 q 0,1.54 -1.1,2.27 v 0 0 q -1.1,0.73 -3,0.73 z m 8.99,0 v 0 q -1.89,0 -2.82,-0.94 v 0 0 Q 39.44,10.58 39.44,8.61 v 0 0 q 0,-1.97 0.92,-2.91 v 0 0 q 0.93,-0.94 2.82,-0.94 v 0 0 q 1.89,0 2.82,0.94 v 0 0 q 0.93,0.94 0.93,2.91 v 0 0 q 0,1.97 -0.93,2.91 v 0 0 q -0.93,0.94 -2.82,0.94 z m 0,-1.57 v 0 q 0.93,0 1.35,-0.54 v 0 0 q 0.42,-0.54 0.42,-1.63 v 0 -0.22 0 q 0,-1.09 -0.42,-1.63 v 0 0 Q 44.11,6.33 43.18,6.33 v 0 0 q -0.94,0 -1.36,0.54 v 0 0 Q 41.41,7.41 41.41,8.5 v 0 0.22 0 q 0,1.09 0.41,1.63 v 0 0 q 0.42,0.54 1.36,0.54 z m 5.27,3.82 V 4.93 h 1.64 l 0.13,0.96 h 0.1 v 0 q 0.35,-0.56 0.93,-0.84 v 0 0 q 0.59,-0.29 1.31,-0.29 v 0 0 q 1.4,0 2.17,0.96 v 0 0 q 0.77,0.96 0.77,2.9 v 0 0 q 0,1.91 -0.78,2.87 v 0 0 q -0.78,0.97 -2.07,0.97 v 0 0 q -0.74,0 -1.31,-0.27 v 0 0 q -0.56,-0.26 -0.88,-0.75 v 0 h -0.09 v 3.27 z m 3.49,-3.92 v 0 q 0.85,0 1.22,-0.51 v 0 0 q 0.36,-0.51 0.36,-1.54 v 0 -0.26 0 q 0,-1.03 -0.36,-1.54 v 0 0 Q 52.79,6.43 51.94,6.43 v 0 0 q -1.57,0 -1.57,2.05 v 0 0.23 0 q 0,2.08 1.57,2.08 z m 5.07,1.5 V 2.17 h 1.92 v 3.61 h 0.09 v 0 q 0.84,-1.02 2.16,-1.02 v 0 0 q 1.13,0 1.79,0.62 v 0 0 q 0.65,0.61 0.65,1.97 v 0 4.94 H 61.7 v -4.53 0 q 0,-0.69 -0.32,-1 v 0 0 Q 61.05,6.45 60.42,6.45 v 0 0 q -0.64,0 -1.07,0.46 v 0 0 q -0.42,0.45 -0.42,1.13 v 0 4.25 z"
         id="path214" />
    </g>
    <g
       data-v-423bf9ae=""
       id="03e8a05f-8927-42a1-b509-9862f657ece2"
       transform="translate(-5,-5)"
       stroke="none"
       fill="#131619">
      <path
         d="M 50,5 C 25.187,5 5,25.187 5,50 5,74.813 25.187,95 50,95 74.813,95 95,74.813 95,50 95,25.187 74.813,5 50,5 Z m 8.987,77.823 A 0.428,0.428 0 0 1 58.56,82.396 v -2.902 c 0,-0.235 0.192,-0.427 0.427,-0.427 h 2.902 c 0.235,0 0.427,0.192 0.427,0.427 v 2.902 a 0.428,0.428 0 0 1 -0.427,0.427 z m 9.546,-55.922 h -6.838 a 1.27,1.27 0 0 1 -1.268,-1.268 v -3.757 a 3.498,3.498 0 0 0 3.414,-3.491 v -2.902 a 3.504,3.504 0 0 0 -3.5,-3.499 h -2.902 c -1.93,0 -3.5,1.57 -3.5,3.499 v 2.902 a 3.5,3.5 0 0 0 3.414,3.491 v 3.757 a 4.346,4.346 0 0 0 4.341,4.341 h 6.838 a 1.27,1.27 0 0 1 1.268,1.268 v 14.703 a 4.345,4.345 0 0 0 4.341,4.341 h 3.488 c -0.036,0.293 -0.059,0.59 -0.059,0.892 v 6.151 a 3.499,3.499 0 0 0 -3.419,3.491 v 2.902 a 3.503,3.503 0 0 0 3.499,3.499 h 2.902 a 3.503,3.503 0 0 0 3.499,-3.499 V 60.82 a 3.498,3.498 0 0 0 -3.409,-3.49 v -6.152 c 0,-0.307 0.034,-0.605 0.099,-0.892 h 9.057 C 89.673,67.941 78.001,82.899 61.971,87.966 v -2.077 a 3.498,3.498 0 0 0 3.415,-3.491 v -2.902 a 3.503,3.503 0 0 0 -3.499,-3.499 h -2.902 a 3.503,3.503 0 0 0 -3.499,3.499 v 2.902 c 0,1.9 1.524,3.444 3.413,3.491 v 2.905 a 39.749,39.749 0 0 1 -8.9,1.016 C 28.05,89.808 10.192,71.95 10.192,50 c 0,-3.18 0.386,-6.271 1.094,-9.237 h 13.488 v 8.706 c 0,2.4 1.953,4.353 4.353,4.353 h 2.834 c 0.091,1.849 1.611,3.329 3.482,3.329 h 2.902 a 3.504,3.504 0 0 0 3.499,-3.5 v -2.902 c 0,-1.93 -1.57,-3.5 -3.499,-3.5 h -2.902 a 3.504,3.504 0 0 0 -3.499,3.5 h -2.817 c -0.706,0 -1.28,-0.574 -1.28,-1.28 V 28.984 c 0,-0.706 0.574,-1.28 1.28,-1.28 h 4.011 v 0.085 c 0,1.93 1.57,3.5 3.499,3.5 h 2.902 a 3.504,3.504 0 0 0 3.499,-3.5 v -2.902 c 0,-1.93 -1.57,-3.5 -3.499,-3.5 h -2.902 c -1.842,0 -3.34,1.435 -3.473,3.244 h -4.037 a 4.358,4.358 0 0 0 -4.353,4.353 V 37.69 H 12.149 C 17.347,21.748 32.346,10.192 50,10.192 c 21.012,0 38.262,16.368 39.699,37.021 H 74.142 A 1.27,1.27 0 0 1 72.874,45.944 V 31.241 a 4.345,4.345 0 0 0 -4.341,-4.34 z M 57.012,18.384 v -2.902 c 0,-0.235 0.192,-0.427 0.427,-0.427 h 2.902 c 0.236,0 0.427,0.192 0.427,0.427 v 2.902 a 0.428,0.428 0 0 1 -0.427,0.427 h -2.902 a 0.428,0.428 0 0 1 -0.427,-0.427 z m 23.542,42.009 c 0.235,0 0.427,0.192 0.427,0.427 v 2.902 a 0.428,0.428 0 0 1 -0.427,0.427 H 77.652 A 0.428,0.428 0 0 1 77.225,63.722 V 60.82 c 0,-0.235 0.192,-0.427 0.427,-0.427 z M 35.016,53.651 v -2.902 c 0,-0.236 0.192,-0.427 0.427,-0.427 h 2.902 c 0.235,0 0.427,0.192 0.427,0.427 v 2.902 a 0.427,0.427 0 0 1 -0.427,0.427 h -2.902 a 0.428,0.428 0 0 1 -0.427,-0.427 z m 1.195,-25.862 v -2.902 c 0,-0.236 0.192,-0.427 0.427,-0.427 h 2.902 c 0.235,0 0.427,0.192 0.427,0.427 v 2.902 a 0.427,0.427 0 0 1 -0.427,0.427 h -2.902 a 0.427,0.427 0 0 1 -0.427,-0.427 z"
         id="path217" />
      <path
         d="m 48.634,32.979 c -1.93,0 -3.5,1.57 -3.5,3.499 v 2.902 c 0,1.871 1.48,3.391 3.329,3.482 v 3.944 a 6.665,6.665 0 0 0 6.657,6.657 h 0.252 v 4.863 a 2.651,2.651 0 0 1 -2.648,2.648 H 35.4 a 6.665,6.665 0 0 0 -6.657,6.657 v 4.267 h -0.256 c -1.93,0 -3.5,1.57 -3.5,3.499 V 78.3 a 3.504,3.504 0 0 0 3.5,3.499 h 2.902 c 1.93,0 3.5,-1.57 3.5,-3.499 v -2.902 a 3.47,3.47 0 0 0 -0.164,-1.003 3.484,3.484 0 0 0 -2.909,-2.453 v -4.311 a 3.59,3.59 0 0 1 3.585,-3.585 h 10.584 v 4.618 a 3.498,3.498 0 0 0 -3.414,3.491 v 2.902 a 3.504,3.504 0 0 0 3.5,3.499 h 2.902 c 1.93,0 3.5,-1.57 3.5,-3.499 v -2.902 a 3.5,3.5 0 0 0 -3.414,-3.491 v -4.618 h 3.668 a 5.727,5.727 0 0 0 5.72,-5.721 v -4.863 h 4.869 a 3.59,3.59 0 0 1 3.585,3.585 v 6.145 h -0.426 a 3.503,3.503 0 0 0 -3.499,3.499 v 2.902 a 3.503,3.503 0 0 0 3.499,3.499 h 2.902 a 3.503,3.503 0 0 0 3.499,-3.499 v -2.902 a 3.497,3.497 0 0 0 -2.902,-3.439 v -6.206 a 6.665,6.665 0 0 0 -6.657,-6.657 h -8.193 a 3.59,3.59 0 0 1 -3.585,-3.585 v -3.926 a 3.504,3.504 0 0 0 3.499,-3.5 v -2.902 a 3.504,3.504 0 0 0 -3.5,-3.499 H 48.634 Z M 31.816,75.398 V 78.3 a 0.428,0.428 0 0 1 -0.427,0.427 H 28.487 A 0.427,0.427 0 0 1 28.06,78.3 v -2.902 c 0,-0.235 0.192,-0.427 0.427,-0.427 h 2.902 c 0.235,0 0.427,0.192 0.427,0.427 z m 17.582,-3.243 v 2.902 a 0.428,0.428 0 0 1 -0.427,0.427 h -2.902 a 0.427,0.427 0 0 1 -0.427,-0.427 v -2.902 c 0,-0.235 0.192,-0.427 0.427,-0.427 h 2.902 c 0.236,0 0.427,0.192 0.427,0.427 z m 20.403,-2.561 a 0.428,0.428 0 0 1 -0.427,0.427 h -2.902 a 0.428,0.428 0 0 1 -0.427,-0.427 v -2.902 c 0,-0.235 0.192,-0.427 0.427,-0.427 h 2.902 c 0.235,0 0.427,0.192 0.427,0.427 z M 56.909,51.926 Z M 51.963,36.478 v 2.902 a 0.428,0.428 0 0 1 -0.427,0.427 H 48.634 A 0.427,0.427 0 0 1 48.207,39.38 v -2.902 c 0,-0.235 0.192,-0.427 0.427,-0.427 h 2.902 c 0.236,0 0.427,0.192 0.427,0.427 z"
         id="path219" />
    </g>
  </g>
  <!---->
</svg>
